<?xml version="1.0" encoding="UTF-8"?>
<!DOCTYPE svg PUBLIC "-//W3C//DTD SVG 1.1//EN" "http://www.w3.org/Graphics/SVG/1.1/DTD/svg11.dtd">
<!-- Creator: CorelDRAW 2020 (64-Bit) -->
<svg xmlns="http://www.w3.org/2000/svg" xml:space="preserve" width="663px" height="663px" version="1.1" style="shape-rendering:geometricPrecision; text-rendering:geometricPrecision; image-rendering:optimizeQuality; fill-rule:evenodd; clip-rule:evenodd"
viewBox="0 0 34.4 34.4"
 xmlns:xlink="http://www.w3.org/1999/xlink"
 xmlns:xodm="http://www.corel.com/coreldraw/odm/2003">
 <defs>
  <style type="text/css">
   <![CDATA[
    .fil2 {fill:#FEFEFE}
    .fil1 {fill:#FEFEFE}
    .fil5 {fill:#DD7D21}
    .fil4 {fill:#262523}
    .fil3 {fill:#252422}
    .fil0 {fill:#0D2F5D}
   ]]>
  </style>
 </defs>
 <g id="Layer_x0020_1">
  <metadata id="CorelCorpID_0Corel-Layer"/>
  <g id="_2550500825376">
   <g>
    <path class="fil0" d="M17.2 0c9.5,0 17.2,7.7 17.2,17.2 0,9.5 -7.7,17.2 -17.2,17.2 -9.5,0 -17.2,-7.7 -17.2,-17.2 0,-9.5 7.7,-17.2 17.2,-17.2zm0 3.34c7.66,0 13.86,6.2 13.86,13.86 0,7.66 -6.2,13.86 -13.86,13.86 -7.66,0 -13.86,-6.2 -13.86,-13.86 0,-7.66 6.2,-13.86 13.86,-13.86z"/>
    <path class="fil1" d="M2.93 25.25l1.52 -0.99 0.73 1.13 -0.26 0.17 -0.52 -0.82 -0.34 0.22 0.49 0.76 -0.26 0.17 -0.49 -0.77 -0.42 0.27 0.55 0.85 -0.26 0.17 -0.74 -1.16zm1.13 1.7l1.43 -1.12 0.48 0.61c0.12,0.15 0.19,0.27 0.22,0.36 0.03,0.09 0.03,0.18 -0.01,0.27 -0.03,0.1 -0.09,0.18 -0.17,0.24 -0.11,0.09 -0.22,0.13 -0.34,0.12 -0.12,-0.01 -0.24,-0.07 -0.36,-0.18 0.02,0.09 0.02,0.17 0,0.25 -0.01,0.07 -0.04,0.19 -0.1,0.34l-0.14 0.4 -0.27 -0.35 0.15 -0.45c0.05,-0.16 0.08,-0.27 0.09,-0.32 0.01,-0.05 0,-0.09 -0.01,-0.13 -0.01,-0.04 -0.05,-0.09 -0.1,-0.16l-0.05 -0.06 -0.59 0.47 -0.23 -0.29zm1.05 -0.36l0.17 0.22c0.11,0.14 0.18,0.22 0.22,0.24 0.04,0.03 0.08,0.04 0.12,0.04 0.05,-0.01 0.09,-0.02 0.13,-0.06 0.05,-0.04 0.08,-0.08 0.09,-0.13 0.01,-0.05 0,-0.1 -0.03,-0.15 -0.01,-0.03 -0.07,-0.1 -0.16,-0.22l-0.17 -0.22 -0.37 0.28zm0.25 1.92l0.23 -0.24 1.5 -0.19 -0.61 -0.59 0.21 -0.22 0.97 0.92 -0.2 0.2 -1.57 0.2 0.75 0.72 -0.21 0.22 -1.07 -1.02zm1.52 1.38l1.12 -1.43 0.29 0.23 -1.12 1.43 -0.29 -0.23zm1.23 -1.55l0.21 -0.26 0.27 0.22 -0.21 0.26 -0.27 -0.22zm-0.39 2.22l0.98 -1.53 0.3 0.19 -0.02 1.43 0.65 -1.03 0.29 0.18 -0.98 1.53 -0.31 -0.19 0.02 -1.41 -0.64 1.01 -0.29 -0.18zm3.2 1.02l0.28 0.25c-0.13,0.16 -0.28,0.26 -0.43,0.29 -0.16,0.04 -0.32,0.01 -0.5,-0.07 -0.22,-0.1 -0.37,-0.25 -0.44,-0.47 -0.07,-0.21 -0.05,-0.45 0.07,-0.71 0.12,-0.28 0.29,-0.46 0.5,-0.54 0.21,-0.09 0.43,-0.08 0.67,0.02 0.2,0.09 0.34,0.23 0.41,0.41 0.04,0.1 0.05,0.23 0.03,0.38l-0.37 -0.07c0.02,-0.1 0.01,-0.18 -0.03,-0.26 -0.04,-0.08 -0.1,-0.14 -0.19,-0.18 -0.12,-0.06 -0.24,-0.06 -0.36,0 -0.12,0.05 -0.22,0.17 -0.31,0.37 -0.09,0.21 -0.12,0.38 -0.09,0.5 0.04,0.12 0.12,0.21 0.24,0.27 0.08,0.04 0.17,0.04 0.26,0.02 0.09,-0.03 0.18,-0.1 0.26,-0.21zm2.23 1.53l-0.38 -0.13 -0.01 -0.44 -0.69 -0.24 -0.28 0.34 -0.37 -0.13 1.26 -1.48 0.37 0.12 0.1 1.96zm-0.4 -0.9l-0.02 -0.72 -0.46 0.56 0.48 0.16zm0.95 0.98l0.31 -1.79 0.35 0.07 0.53 1.32 0.21 -1.2 0.33 0.06 -0.31 1.79 -0.36 -0.06 -0.52 -1.3 -0.21 1.17 -0.33 -0.06zm2.83 -1.43l0.72 -0.02c0.15,0 0.25,0 0.33,0.01 0.07,0.01 0.13,0.04 0.19,0.07 0.05,0.04 0.1,0.09 0.14,0.15 0.04,0.06 0.06,0.13 0.06,0.21 0,0.09 -0.02,0.16 -0.06,0.24 -0.05,0.07 -0.11,0.12 -0.19,0.16 0.12,0.03 0.2,0.08 0.26,0.16 0.06,0.08 0.1,0.17 0.1,0.27 0,0.08 -0.02,0.16 -0.05,0.24 -0.04,0.08 -0.09,0.15 -0.16,0.2 -0.06,0.04 -0.14,0.07 -0.24,0.09 -0.06,0 -0.21,0.01 -0.44,0.02l-0.62 0.01 -0.04 -1.81zm0.37 0.29l0.01 0.42 0.24 -0.01c0.14,0 0.23,0 0.27,-0.01 0.06,-0.01 0.11,-0.03 0.14,-0.07 0.04,-0.03 0.06,-0.08 0.05,-0.14 0,-0.06 -0.01,-0.1 -0.05,-0.13 -0.03,-0.04 -0.07,-0.06 -0.13,-0.07 -0.04,0 -0.15,0 -0.32,0.01l-0.21 0zm0.02 0.72l0.01 0.49 0.34 -0.01c0.13,0 0.21,-0.01 0.25,-0.02 0.05,-0.01 0.1,-0.03 0.13,-0.07 0.04,-0.04 0.05,-0.09 0.05,-0.16 0,-0.05 -0.02,-0.1 -0.04,-0.14 -0.03,-0.03 -0.07,-0.06 -0.12,-0.08 -0.05,-0.01 -0.16,-0.02 -0.33,-0.02l-0.29 0.01zm1.84 0.72l-0.24 -1.8 1.34 -0.17 0.04 0.3 -0.97 0.13 0.05 0.4 0.9 -0.12 0.04 0.31 -0.9 0.11 0.06 0.49 1.01 -0.13 0.03 0.3 -1.36 0.18zm2.03 -0.3l-0.49 -1.74 0.35 -0.1 0.41 1.44 0.88 -0.25 0.08 0.3 -1.23 0.35zm1.83 -0.54l-0.68 -1.68 1.25 -0.5 0.12 0.28 -0.91 0.37 0.15 0.37 0.84 -0.34 0.12 0.29 -0.85 0.34 0.18 0.45 0.94 -0.37 0.12 0.28 -1.28 0.51zm0.99 -2.36l0.58 -0.34c0.13,-0.07 0.23,-0.12 0.31,-0.14 0.11,-0.02 0.22,-0.02 0.32,0.01 0.11,0.03 0.21,0.09 0.3,0.17 0.09,0.08 0.18,0.2 0.26,0.35 0.08,0.13 0.13,0.25 0.15,0.36 0.02,0.14 0.02,0.26 -0.01,0.37 -0.03,0.09 -0.08,0.17 -0.15,0.26 -0.06,0.06 -0.15,0.12 -0.26,0.19l-0.6 0.34 -0.9 -1.57zm0.47 0.08l0.59 1.04 0.24 -0.13c0.09,-0.05 0.15,-0.09 0.18,-0.13 0.05,-0.04 0.08,-0.08 0.09,-0.13 0.02,-0.05 0.02,-0.12 0,-0.2 -0.02,-0.09 -0.06,-0.19 -0.13,-0.31 -0.07,-0.12 -0.14,-0.21 -0.19,-0.26 -0.06,-0.06 -0.12,-0.09 -0.18,-0.1 -0.06,-0.02 -0.12,-0.02 -0.19,0 -0.05,0.02 -0.14,0.06 -0.27,0.14l-0.14 0.08zm2.29 0.38l-1.05 -1.49 0.3 -0.21 1.05 1.48 -0.3 0.22zm-1.13 -1.63l-0.19 -0.27 0.28 -0.2 0.19 0.27 -0.28 0.2zm2.38 0.7l-0.5 -0.58 -1.2 -0.36 0.33 -0.28 0.8 0.26 -0.16 -0.82 0.32 -0.27 0.19 1.23 0.5 0.58 -0.28 0.24zm1.16 -1.06l-1.32 -1.25 0.93 -0.98 0.22 0.21 -0.67 0.71 0.29 0.28 0.63 -0.66 0.22 0.21 -0.63 0.66 0.36 0.34 0.7 -0.73 0.22 0.21 -0.95 1zm0.83 -1.8l0.17 -0.31c0.11,0.05 0.21,0.07 0.29,0.05 0.09,-0.02 0.16,-0.08 0.23,-0.17 0.06,-0.09 0.1,-0.18 0.09,-0.26 -0.01,-0.08 -0.04,-0.13 -0.09,-0.17 -0.04,-0.03 -0.07,-0.04 -0.11,-0.04 -0.04,0.01 -0.09,0.03 -0.14,0.07 -0.04,0.02 -0.12,0.09 -0.24,0.19 -0.15,0.13 -0.28,0.21 -0.38,0.23 -0.15,0.03 -0.28,0.01 -0.4,-0.08 -0.07,-0.05 -0.13,-0.12 -0.17,-0.21 -0.03,-0.09 -0.04,-0.19 -0.01,-0.29 0.02,-0.11 0.07,-0.22 0.15,-0.33 0.13,-0.19 0.27,-0.3 0.42,-0.33 0.15,-0.04 0.29,-0.01 0.43,0.09l-0.2 0.3c-0.08,-0.04 -0.16,-0.05 -0.22,-0.03 -0.06,0.02 -0.13,0.07 -0.18,0.15 -0.07,0.09 -0.1,0.17 -0.09,0.24 0,0.05 0.02,0.09 0.05,0.11 0.04,0.03 0.08,0.03 0.13,0.02 0.05,-0.01 0.15,-0.08 0.29,-0.2 0.14,-0.12 0.25,-0.2 0.34,-0.25 0.08,-0.04 0.17,-0.06 0.26,-0.05 0.09,0 0.19,0.04 0.28,0.11 0.08,0.06 0.15,0.14 0.19,0.24 0.04,0.1 0.05,0.2 0.02,0.31 -0.02,0.11 -0.08,0.24 -0.17,0.36 -0.14,0.19 -0.28,0.3 -0.44,0.34 -0.16,0.04 -0.33,0.01 -0.5,-0.09zm1.67 -1.42l-1.58 -0.91 0.19 -0.32 1.57 0.91 -0.18 0.32zm-1.71 -1.01l-0.29 -0.16 0.17 -0.3 0.29 0.16 -0.17 0.3z"/>
    <path class="fil0" d="M27.56 25.08c-0.38,-0.35 -0.72,-0.8 -0.85,-1.06 -0.13,-0.27 -0.11,-0.41 -0.11,-0.41 0,0 0.02,-0.02 0.07,0.01 0.04,0.02 0.15,0.15 0.39,0.43 0.12,0.15 0.22,0.24 0.31,0.29 0.08,0.05 0.36,0.15 0.44,0.09 0.03,-0.03 0.03,-0.08 0.03,-0.08 0,0 -0.05,-0.01 -0.16,-0.08 -0.12,-0.08 -0.32,-0.3 -0.55,-0.57 -0.22,-0.26 -0.3,-0.46 -0.51,-0.89 -0.21,-0.43 -0.19,-0.64 -0.29,-0.94 -0.1,-0.3 -0.18,-1.35 -0.19,-1.53 0,-0.17 0,-1.03 0.01,-1.24 0,-0.21 0.04,-0.89 0.07,-1.19 0.02,-0.29 0.16,-1.25 0.23,-1.79 0.08,-0.54 0.04,-0.88 0.04,-1.2 -0.01,-0.31 -0.33,-0.69 -0.33,-0.69l-0.03 -0.05 0.15 -0.08c0,0 0.45,0.04 0.47,0.03 0.03,-0.01 0.1,-0.03 0.16,-0.27 0.06,-0.25 0.06,-0.73 0.02,-1 -0.03,-0.27 -0.15,-1.07 -0.15,-1.07l-0.23 0.09c0,0 0.12,-0.23 0.18,-0.4 0.07,-0.18 0.1,-0.45 0.09,-0.67 -0.02,-0.22 -0.05,-0.25 -0.16,-0.48 -0.11,-0.23 -0.56,-0.42 -0.66,-0.45 -0.11,-0.04 -0.25,-0.06 -0.44,-0.07 -0.19,-0.01 -0.25,0 -0.43,-0.04 -0.19,-0.04 -0.31,-0.06 -0.55,-0.12 -0.23,-0.07 -0.57,-0.15 -1.08,-0.16 -0.51,-0.01 -0.92,0.18 -1.11,0.27 -0.19,0.09 -0.29,0.2 -0.32,0.23 -0.03,0.03 -0.03,0.06 -0.03,0.06 0,0 -0.01,-0.07 0.02,0.21 0.03,0.29 0.24,0.92 0.53,1.63 0.29,0.71 1.17,1.81 1.17,1.81 0,0 0.01,0.03 0,0.03 -0.02,0.01 -0.11,-0.02 -0.18,-0.06 -0.06,-0.04 -0.16,-0.13 -0.16,-0.13 0,0 -1.4,-1.89 -1.51,-3.45 0,0 -0.34,-0.21 -0.51,-0.2 -0.1,0 -0.22,0.16 -0.31,0.29 -0.09,0.11 -0.35,0.13 -0.44,0.14 -0.2,0.01 -0.37,-0.06 -0.46,-0.21 -0.21,-0.33 -0.22,-1.15 -0.08,-1.44 0.05,-0.11 0.11,-0.29 0.24,-0.49 0.14,-0.21 0.53,-0.63 0.65,-0.69 0.17,-0.09 0.41,-0.22 0.7,-0.23 0.2,-0.01 0.18,-0.1 0.27,-0.12 0,0 0.05,0.02 0.14,0.04 0.01,0.01 0.1,-0.08 0.14,-0.1 0.03,-0.02 0.13,-0.02 0.17,-0.03 0.05,-0.03 0.1,-0.11 0.18,-0.11 0.08,0 0.06,0.03 0.12,-0.02 0.02,-0.03 0.04,-0.06 0.06,-0.08 0.03,-0.02 0.06,-0.02 0.09,-0.01 0.03,0 0.05,0 0.06,0 0.04,-0.02 0.07,-0.03 0.08,-0.04 0,0 0.06,-0.06 0.1,-0.16 0.12,-0.3 0.02,-0.65 -0.16,-0.91 -0.05,-0.08 -0.11,-0.17 -0.31,-0.35 -0.15,-0.13 -0.34,-0.2 -0.49,-0.22 -0.13,-0.02 -0.33,-0.06 -0.45,-0.01 0.01,0.01 0.24,0.21 0.27,0.23 0.28,0.33 -0.49,0.82 -0.64,0.16l-0.05 -0.2 -0.04 -0.18c0,0 -0.13,-0.04 -0.59,0.09 -0.55,0.16 -1.01,0.41 -1.87,1.1 -0.62,0.51 -1.34,1.48 -1.46,1.65l0 0c-0.11,-0.15 -0.89,-1.18 -1.46,-1.65 -0.45,-0.36 -0.8,-0.6 -1.1,-0.77 -0.26,-0.15 -1.11,-0.51 -1.37,-0.42l-0.04 0.18 -0.06 0.29c-0.04,0.21 -0.33,0.32 -0.51,0.19 -0.07,-0.04 -0.13,-0.09 -0.15,-0.19 -0.05,-0.24 0.14,-0.35 0.31,-0.48 -0.06,-0.02 -0.14,-0.03 -0.22,-0.02 -0.09,0 -0.18,0.02 -0.24,0.03 -0.15,0.02 -0.34,0.09 -0.49,0.22 -0.2,0.18 -0.26,0.27 -0.31,0.35 -0.07,0.1 -0.12,0.25 -0.14,0.3 -0.11,0.22 -0.07,0.46 -0.01,0.61 0.03,0.1 0.09,0.16 0.1,0.16 0,0.01 0.03,0.02 0.07,0.04 0.02,0 0.04,0 0.06,0 0.03,-0.01 0.07,-0.01 0.09,0.01 0.02,0.02 0.04,0.05 0.07,0.08 0.05,0.05 0.04,0.02 0.12,0.02 0.08,0 0.13,0.08 0.17,0.11 0.05,0.01 0.14,0.01 0.18,0.03 0.04,0.02 0.13,0.11 0.14,0.1 0.09,-0.02 0.14,-0.04 0.13,-0.04 0.09,0.02 0.07,0.11 0.28,0.12 0.28,0.01 0.53,0.14 0.7,0.23 0.11,0.06 0.51,0.48 0.64,0.69 0.13,0.2 0.2,0.38 0.25,0.49 0.13,0.29 0.13,1.11 -0.08,1.44 -0.1,0.15 -0.27,0.22 -0.47,0.21 -0.08,-0.01 -0.35,-0.03 -0.43,-0.14 -0.1,-0.13 -0.22,-0.29 -0.31,-0.29 -0.18,-0.01 -0.52,0.2 -0.52,0.2 0,0 -0.27,1.9 -1.5,3.45 0,0 -0.11,0.09 -0.17,0.13 -0.06,0.04 -0.16,0.07 -0.17,0.06 -0.02,0 0,-0.03 0,-0.03 0.67,-0.84 1.59,-2.34 1.7,-3.44 0.03,-0.28 0.01,-0.21 0.01,-0.21 0,0 0,-0.03 -0.03,-0.06 -0.03,-0.03 -0.12,-0.14 -0.31,-0.23 -0.2,-0.09 -0.61,-0.28 -1.11,-0.27 -0.51,0.01 -0.85,0.09 -1.09,0.16 -0.24,0.06 -0.36,0.08 -0.54,0.12 -0.19,0.04 -0.25,0.03 -0.44,0.04 -0.18,0.01 -0.33,0.03 -0.43,0.07 -0.11,0.03 -0.56,0.22 -0.66,0.45 -0.11,0.23 -0.15,0.26 -0.16,0.48 -0.01,0.22 0.01,0.49 0.08,0.67 0.07,0.17 0.18,0.4 0.18,0.4l-0.22 -0.09c0,0 -0.12,0.8 -0.16,1.07 -0.03,0.27 -0.03,0.75 0.03,1 0.06,0.24 0.12,0.26 0.15,0.27 0.03,0.01 0.48,-0.03 0.48,-0.03l0.15 0.08 -0.04 0.05c0,0 -0.32,0.38 -0.32,0.69 -0.01,0.32 -0.05,0.66 0.03,1.2 0.08,0.54 0.21,1.5 0.24,1.79 0.02,0.3 0.06,0.98 0.07,1.19 0,0.21 0.01,1.07 0,1.24 -0.01,0.18 -0.09,1.23 -0.19,1.53 -0.1,0.3 -0.08,0.51 -0.29,0.94 -0.2,0.43 -0.28,0.63 -0.51,0.89 -0.22,0.27 -0.43,0.49 -0.54,0.57 -0.12,0.07 -0.16,0.08 -0.16,0.08 0,0 0,0.05 0.03,0.08 0.03,0.03 0.08,0.02 0.21,0 0.13,-0.02 0.31,-0.09 0.54,-0.38 0.23,-0.28 0.34,-0.41 0.39,-0.43 0.05,-0.03 0.07,-0.01 0.07,-0.01 0,0 0.01,0.14 -0.12,0.41 -0.13,0.26 -0.46,0.71 -0.85,1.06 -0.38,0.35 -0.48,0.52 -0.48,0.52 0,0 0.11,0.01 0.19,0 0.07,-0.01 0.72,-0.2 0.99,-0.41 0.27,-0.22 0.6,-0.48 0.86,-0.91 0.26,-0.43 0.44,-0.85 0.51,-1.08 0.07,-0.23 0.17,-0.47 0.17,-0.47l0.1 0c0,0 0,0.17 -0.18,0.6 -0.17,0.42 -0.26,0.63 -0.4,0.89 -0.15,0.26 -0.31,0.49 -0.33,0.53 -0.01,0.04 -0.03,0.09 -0.03,0.09 0,0 0.25,0 0.52,-0.03 0.27,-0.03 0.72,-0.18 1.05,-0.43 0.34,-0.25 0.44,-0.54 0.55,-0.8 0.11,-0.26 0.24,-0.86 0.28,-1.13 0.05,-0.27 0.13,-0.66 0.14,-0.67 0,-0.01 0.02,-0.02 0.04,0.11 0.03,0.13 0.04,0.28 0.04,0.28 0,0 0.11,-0.09 0.31,-0.45 0,0 0.19,-0.27 0.4,-1.02 0.21,-0.75 0.32,-1.68 0.37,-2.21 0.06,-0.54 0.09,-1.69 0.13,-2 0.05,-0.31 0.12,-1.14 0.28,-1.46 0.16,-0.32 0.3,-0.43 0.54,-0.46 0.25,-0.04 0.49,0.03 0.6,0.3 0,0 0.12,0.28 0.12,0.64 0.01,0.37 -0.02,1.71 0,1.88 0.02,0.18 0.09,0.77 0.15,0.9 0.06,0.14 0.14,0.73 0.13,1 -0.01,0.26 -0.07,0.43 -0.12,0.6 -0.05,0.18 -0.44,1.47 -0.55,1.69 -0.11,0.22 -0.59,1.29 -0.92,1.81 -0.34,0.52 -1.08,1.36 -1.19,1.44 -0.12,0.09 -0.19,0.16 -0.19,0.16 0,0 -0.05,0 -0.16,0.06 -0.12,0.05 -0.36,0.14 -0.53,0.25 -0.18,0.12 -0.4,0.22 -0.52,0.3 -0.11,0.09 -0.29,0.14 -0.37,0.17 -0.07,0.04 -0.28,0.07 -0.39,0.1 -0.11,0.03 -0.43,0.1 -0.51,0.22 -0.08,0.12 -0.06,0.21 -0.02,0.28 0.05,0.08 0.21,0.09 0.21,0.09l-0.08 -0.24c0,0 -0.03,-0.03 0.23,-0.09 0.26,-0.07 0.48,-0.18 0.58,-0.2 0.1,-0.03 0.23,-0.07 0.3,-0.09 0.06,-0.03 0.15,-0.05 0.15,-0.05 0,0 0.08,-0.01 0.12,-0.02 0.1,-0.03 0.38,-0.15 0.43,-0.17 0.07,-0.04 0.18,-0.07 0.19,-0.08 0.02,-0.01 0.22,-0.06 0.24,0.01 0.02,0.08 0.03,0.08 -0.03,0.1 -0.06,0.02 -0.18,0.1 -0.33,0.14 -0.15,0.05 -0.62,0.17 -0.72,0.2 0,0 -0.12,0.06 -0.22,0.11 -0.09,0.06 -0.22,0.15 -0.21,0.28 0.01,0.12 0.1,0.16 0.13,0.18 0.03,0.02 0.11,0 0.11,0 0,0 -0.08,-0.12 -0.09,-0.17 0,-0.04 -0.02,-0.06 0.08,-0.12 0.1,-0.05 0.23,-0.11 0.48,-0.17 0.25,-0.07 0.6,-0.17 0.71,-0.19 0.11,-0.01 0.25,-0.04 0.31,-0.07 0.07,-0.02 0.16,-0.09 0.19,-0.12 0.04,-0.03 0.05,-0.03 0.05,-0.03l0.16 0c0,0 0.1,-0.09 0.16,-0.12 0.07,-0.02 0.13,0 0.24,0.01 0.12,0.02 0.26,0.06 0.29,0.06 0.03,0.01 0.08,0.02 0.18,0.02 0.09,0.01 0.13,0 0.19,0 0.07,0 0.21,0.03 0.22,0.15 0,0.12 -0.02,0.13 -0.04,0.17 -0.02,0.03 -0.03,0.09 -0.03,0.09l0.15 -0.02c0,0 0.12,-0.05 0.16,-0.17 0.03,-0.12 -0.02,-0.24 -0.05,-0.3 -0.04,-0.05 -0.18,-0.13 -0.25,-0.17 -0.07,-0.05 -0.11,-0.06 -0.21,-0.1 -0.1,-0.05 -0.16,-0.09 -0.18,-0.15 -0.03,-0.06 -0.06,-0.11 -0.11,-0.14 -0.05,-0.04 -0.13,-0.07 -0.16,-0.11 -0.04,-0.05 -0.02,-0.15 -0.02,-0.16 0,-0.01 0,-0.04 0.06,-0.07 0.05,-0.04 0.07,-0.07 0.08,-0.09 0.01,-0.03 -0.01,-0.05 -0.03,-0.06 -0.01,-0.02 -0.04,-0.04 -0.04,-0.04 0,-0.01 0.05,-0.07 0.05,-0.07 0,0 0.32,-0.32 0.39,-0.4 0.07,-0.09 0.17,-0.29 0.21,-0.35 0.03,-0.06 0.09,-0.17 0.14,-0.22 0.04,-0.04 0.11,-0.12 0.25,-0.26 0.15,-0.14 0.37,-0.36 0.48,-0.51 0.11,-0.14 0.18,-0.24 0.22,-0.33 0.05,-0.08 0.05,-0.08 0.07,-0.12 0.03,-0.05 0.21,-0.16 0.24,-0.19 0.02,-0.02 0.02,-0.08 0.01,-0.1 -0.01,-0.02 -0.05,-0.04 -0.05,-0.13 0.01,-0.08 0.08,-0.41 0.24,-0.75 0.15,-0.34 0.49,-1 0.52,-1.06 0.03,-0.06 0.18,-0.39 0.19,-0.41 0.01,-0.02 0.01,-0.05 -0.02,-0.12 -0.03,-0.07 -0.03,-0.1 -0.03,-0.1 0,0 0,-0.12 0.01,-0.25 0.01,-0.14 0.11,-0.68 0.11,-0.84 0.01,-0.17 -0.01,-0.21 -0.05,-0.29 -0.04,-0.07 -0.34,-0.55 -0.36,-0.58 -0.03,-0.04 -0.12,-0.12 -0.12,-0.12 0,0 -0.04,0.1 -0.12,0.19 -0.08,0.09 -0.19,0.17 -0.29,0.23 -0.1,0.05 -0.15,0.05 -0.15,0.05 0,0 0,-0.08 0.04,-0.13 0.05,-0.05 0.05,-0.03 0.12,-0.06 0.06,-0.03 0.13,-0.07 0.15,-0.08 0,0 0.1,-0.11 0.14,-0.22 0.04,-0.11 0.1,-0.19 0.1,-0.33 0,-0.14 -0.05,-0.25 -0.07,-0.29 -0.02,-0.05 -0.12,-0.15 -0.15,-0.18 -0.03,-0.03 -0.08,-0.05 -0.17,-0.05 -0.09,0.01 -0.14,0.04 -0.17,0.09 -0.02,0.05 -0.04,0.13 -0.04,0.14 0,0.01 0,0.01 0,0.01l0 0.01 -0.07 -0.01c0,0 0,-0.13 0.01,-0.17 0.01,-0.05 0.04,-0.13 0.15,-0.19 0.11,-0.05 0.31,-0.06 0.42,-0.05 0.11,0.01 0.43,0.02 0.43,0.02l0.08 0.07 0.33 0 0 0.26c0,0 -0.03,-0.01 -0.05,-0.01 -0.01,0 -0.07,-0.04 -0.11,-0.05 -0.04,0 -0.12,0.01 -0.12,0.01 0,0 -0.08,0.02 -0.16,0.17 -0.09,0.16 -0.13,0.28 -0.11,0.41 0.01,0.14 0.06,0.28 0.19,0.45 0.12,0.18 0.22,0.28 0.25,0.38 0.03,0.1 0,0.36 -0.03,0.5 -0.02,0.15 -0.11,0.6 -0.1,0.75 0,0.15 0.01,0.31 0.09,0.55 0.07,0.24 0.12,0.43 0.25,0.72 0.14,0.29 0.35,0.62 0.41,0.79 0.07,0.17 0.15,0.43 0.15,0.46 0,0.03 0,0.03 0,0.03l0.09 0.01c0,0 0.02,0.09 0.02,0.21 0.01,0.12 -0.04,0.58 -0.04,0.67 0,0.09 0,0.15 0,0.18 0.01,0.03 0.05,0.02 0.04,0.06 0,0.04 0,0.12 -0.02,0.13 -0.02,0.01 -0.08,0 -0.1,0 -0.02,0 -0.12,-0.02 -0.12,-0.02 0,0 -0.01,0.05 0.01,0.09 0.02,0.04 0.08,0.1 0.08,0.11 0.01,0.01 0.05,0.07 0.05,0.08 0,0.01 0.01,0.06 0,0.09 -0.02,0.04 -0.16,0.19 -0.14,0.3 0.01,0.11 0.06,0.14 0.09,0.15 0.04,0.01 0.07,-0.02 0.09,-0.03 0.02,-0.01 0.06,-0.02 0.06,-0.02l0.05 0 0 0.13c0,0 0.07,0.04 0.07,0.08 0,0.04 -0.03,0.02 -0.06,0.03 -0.02,0.01 -0.1,0.09 -0.11,0.1 -0.01,0 -0.03,0.04 -0.16,0.09 -0.14,0.06 -0.22,0.07 -0.24,0.07 -0.03,0 -0.03,0.06 0.03,0.09 0.03,0.02 0.08,0.02 0.12,0.01 0.04,0 0.08,-0.01 0.1,0.01 0.04,0.02 0.07,0.06 0.05,0.15 -0.03,0.09 -0.06,0.13 -0.14,0.17 -0.09,0.05 -0.24,0.11 -0.27,0.14 -0.04,0.03 -0.04,0.07 -0.02,0.08 0.03,0.02 0.15,0.06 0.16,0.13 0,0.07 -0.01,0.04 -0.07,0.06 -0.05,0.03 -0.12,0.06 -0.16,0.12 -0.04,0.06 -0.09,0.18 -0.15,0.3 -0.06,0.12 -0.25,0.46 -0.34,0.63 -0.09,0.18 -0.26,0.5 -0.3,0.65 -0.03,0.16 -0.03,0.18 -0.03,0.18 0.08,0.04 0.19,0.05 0.35,0.05 0,0 0.02,0.1 0.13,0.17 0.1,0.07 0.22,0.08 0.32,0.08 0.11,0 0.15,-0.02 0.16,-0.02 0.02,-0.01 0.02,-0.01 0.02,-0.01 0,0 0.16,0.15 0.21,0.19 0.04,0.03 0.12,0.04 0.14,0.04 0.03,0 0.32,0.02 0.32,0.02 0,0 0.04,0.13 0.17,0.19 0.13,0.05 0.2,0.03 0.29,0.02 0.09,-0.02 0.14,-0.03 0.14,-0.03 0,0 0.11,0.07 0.15,0.1 0.01,0.01 0.06,0.01 0.11,0.01l0 0c0.01,0 0.01,0 0.02,0 0,0 0.01,0 0.01,0l0 0c0.05,0 0.1,0 0.12,-0.01 0.04,-0.03 0.14,-0.1 0.14,-0.1 0,0 0.06,0.01 0.14,0.03 0.09,0.01 0.16,0.03 0.29,-0.02 0.13,-0.06 0.18,-0.19 0.18,-0.19 0,0 0.29,-0.02 0.31,-0.02 0.03,0 0.1,-0.01 0.15,-0.04 0.04,-0.04 0.21,-0.19 0.21,-0.19 0,0 0,0 0.01,0.01 0.02,0 0.06,0.02 0.16,0.02 0.11,0 0.22,-0.01 0.33,-0.08 0.1,-0.07 0.13,-0.17 0.13,-0.17 0.18,0.02 0.27,-0.02 0.34,-0.05 0,0 0,-0.02 -0.03,-0.18 -0.03,-0.15 -0.21,-0.47 -0.3,-0.65 -0.09,-0.17 -0.27,-0.51 -0.33,-0.63 -0.06,-0.12 -0.12,-0.24 -0.16,-0.3 -0.03,-0.06 -0.1,-0.09 -0.16,-0.12 -0.05,-0.02 -0.06,0.01 -0.06,-0.06 0,-0.07 0.12,-0.11 0.15,-0.13 0.03,-0.01 0.02,-0.05 -0.01,-0.08 -0.03,-0.03 -0.18,-0.09 -0.27,-0.14 -0.09,-0.04 -0.12,-0.08 -0.14,-0.17 -0.03,-0.09 0.01,-0.13 0.05,-0.15 0.02,-0.02 0.05,-0.01 0.09,-0.01 0.05,0.01 0.09,0.01 0.12,-0.01 0.06,-0.03 0.06,-0.09 0.04,-0.09 -0.03,0 -0.11,-0.01 -0.24,-0.07 -0.14,-0.05 -0.15,-0.09 -0.16,-0.09 -0.01,-0.01 -0.1,-0.09 -0.12,-0.1 -0.02,-0.01 -0.06,0.01 -0.06,-0.03 0,-0.04 0.08,-0.08 0.08,-0.08l0 -0.13 0.04 0c0,0 0.04,0.01 0.06,0.02 0.02,0.01 0.06,0.04 0.09,0.03 0.04,-0.01 0.08,-0.04 0.1,-0.15 0.01,-0.11 -0.13,-0.26 -0.14,-0.3 -0.02,-0.03 0,-0.08 0,-0.09 0,-0.01 0.03,-0.07 0.04,-0.08 0.01,-0.01 0.06,-0.07 0.08,-0.11 0.02,-0.04 0.02,-0.09 0.02,-0.09 0,0 -0.1,0.02 -0.12,0.02 -0.02,0 -0.08,0.01 -0.1,0 -0.03,-0.01 -0.03,-0.09 -0.03,-0.13 0,-0.04 0.03,-0.03 0.04,-0.06 0.01,-0.03 0.01,-0.09 0.01,-0.18 -0.01,-0.09 -0.06,-0.55 -0.05,-0.67 0.01,-0.12 0.03,-0.21 0.03,-0.21l0.09 -0.01c0,0 0,0 0,-0.03 0,-0.03 0.07,-0.29 0.14,-0.46 0.07,-0.17 0.28,-0.5 0.41,-0.79 0.14,-0.29 0.18,-0.48 0.26,-0.72 0.07,-0.24 0.08,-0.4 0.09,-0.55 0,-0.15 -0.08,-0.6 -0.11,-0.75 -0.02,-0.14 -0.05,-0.4 -0.02,-0.5 0.03,-0.1 0.12,-0.2 0.25,-0.38 0.13,-0.17 0.17,-0.31 0.19,-0.45 0.01,-0.13 -0.03,-0.25 -0.11,-0.41 -0.09,-0.16 -0.17,-0.17 -0.17,-0.17 0,0 -0.07,-0.01 -0.11,-0.01 -0.05,0.01 -0.1,0.05 -0.12,0.05 -0.01,0 -0.05,0.01 -0.05,0.01l0 -0.26 0.33 0 0.09 -0.07c0,0 0.31,-0.01 0.42,-0.02 0.12,-0.01 0.32,0 0.42,0.05 0.11,0.06 0.15,0.14 0.15,0.19 0.01,0.04 0.01,0.17 0.01,0.17l-0.06 0.01 -0.01 -0.01c0,0 0,0 0,-0.01 0,-0.01 -0.01,-0.09 -0.04,-0.14 -0.03,-0.05 -0.08,-0.08 -0.17,-0.09 -0.08,0 -0.14,0.02 -0.17,0.05 -0.03,0.03 -0.12,0.13 -0.14,0.18 -0.03,0.04 -0.08,0.15 -0.08,0.29 0.01,0.14 0.06,0.22 0.11,0.33 0.04,0.11 0.13,0.22 0.13,0.22 0.02,0.01 0.09,0.05 0.16,0.08 0.06,0.03 0.07,0.01 0.11,0.06 0.05,0.05 0.04,0.13 0.04,0.13 0,0 -0.05,0 -0.15,-0.05 -0.1,-0.06 -0.2,-0.14 -0.28,-0.23 -0.08,-0.09 -0.12,-0.19 -0.12,-0.19 0,0 -0.09,0.08 -0.12,0.12 -0.03,0.03 -0.33,0.51 -0.37,0.58 -0.04,0.08 -0.05,0.12 -0.05,0.29 0.01,0.16 0.11,0.7 0.12,0.84 0.01,0.13 0,0.25 0,0.25 0,0 0,0.03 -0.03,0.1 -0.02,0.07 -0.02,0.1 -0.01,0.12 0.01,0.02 0.15,0.35 0.18,0.41 0.03,0.06 0.38,0.72 0.53,1.06 0.15,0.34 0.23,0.67 0.23,0.75 0.01,0.09 -0.04,0.11 -0.05,0.13 0,0.02 -0.01,0.08 0.02,0.1 0.03,0.03 0.2,0.14 0.23,0.19 0.03,0.04 0.03,0.04 0.07,0.12 0.04,0.09 0.11,0.19 0.22,0.33 0.11,0.15 0.34,0.37 0.48,0.51 0.15,0.14 0.21,0.22 0.26,0.26 0.05,0.05 0.1,0.16 0.14,0.22 0.03,0.06 0.13,0.26 0.21,0.35 0.07,0.08 0.39,0.4 0.39,0.4 0,0 0.04,0.06 0.04,0.07 0,0 -0.03,0.02 -0.04,0.04 -0.02,0.01 -0.04,0.03 -0.03,0.06 0.01,0.02 0.03,0.05 0.09,0.09 0.05,0.03 0.05,0.06 0.05,0.07 0,0.01 0.02,0.11 -0.01,0.16 -0.04,0.04 -0.12,0.07 -0.17,0.11 -0.05,0.03 -0.08,0.08 -0.1,0.14 -0.03,0.06 -0.09,0.1 -0.19,0.15 -0.09,0.04 -0.13,0.05 -0.21,0.1 -0.07,0.04 -0.21,0.12 -0.24,0.17 -0.04,0.06 -0.08,0.18 -0.05,0.3 0.03,0.12 0.16,0.17 0.16,0.17l0.15 0.02c0,0 -0.01,-0.06 -0.03,-0.09 -0.03,-0.04 -0.05,-0.05 -0.04,-0.17 0,-0.12 0.14,-0.15 0.21,-0.15 0.07,0 0.1,0.01 0.2,0 0.09,0 0.15,-0.01 0.18,-0.02 0.03,0 0.17,-0.04 0.28,-0.06 0.12,-0.01 0.18,-0.03 0.24,-0.01 0.06,0.03 0.16,0.12 0.16,0.12l0.17 0c0,0 0.01,0 0.04,0.03 0.03,0.03 0.13,0.1 0.19,0.12 0.07,0.03 0.2,0.06 0.31,0.07 0.11,0.02 0.47,0.12 0.71,0.19 0.25,0.06 0.38,0.12 0.48,0.17 0.1,0.06 0.08,0.08 0.08,0.12 0,0.05 -0.09,0.17 -0.09,0.17 0,0 0.09,0.02 0.11,0 0.03,-0.02 0.13,-0.06 0.14,-0.18 0.01,-0.13 -0.13,-0.22 -0.22,-0.28 -0.09,-0.05 -0.22,-0.11 -0.22,-0.11 -0.1,-0.03 -0.57,-0.15 -0.72,-0.2 -0.14,-0.04 -0.27,-0.12 -0.32,-0.14 -0.06,-0.02 -0.06,-0.02 -0.04,-0.1 0.02,-0.07 0.22,-0.02 0.24,-0.01 0.01,0.01 0.12,0.04 0.2,0.08 0.04,0.02 0.33,0.14 0.42,0.17 0.05,0.01 0.12,0.02 0.12,0.02 0,0 0.09,0.02 0.16,0.05 0.06,0.02 0.19,0.06 0.29,0.09 0.1,0.02 0.32,0.13 0.58,0.2 0.27,0.06 0.23,0.09 0.23,0.09l-0.08 0.24c0,0 0.17,-0.01 0.21,-0.09 0.05,-0.07 0.07,-0.16 -0.02,-0.28 -0.08,-0.12 -0.4,-0.19 -0.51,-0.22 -0.11,-0.03 -0.31,-0.06 -0.39,-0.1 -0.08,-0.03 -0.25,-0.08 -0.37,-0.17 -0.11,-0.08 -0.33,-0.18 -0.51,-0.3 -0.18,-0.11 -0.42,-0.2 -0.53,-0.25 -0.12,-0.06 -0.16,-0.06 -0.16,-0.06 0,0 -0.08,-0.07 -0.19,-0.16 -0.12,-0.08 -0.86,-0.92 -1.19,-1.44 -0.33,-0.52 -0.82,-1.59 -0.93,-1.81 -0.11,-0.22 -0.5,-1.51 -0.55,-1.69 -0.05,-0.17 -0.1,-0.34 -0.11,-0.6 -0.02,-0.27 0.07,-0.86 0.12,-1 0.06,-0.13 0.13,-0.72 0.15,-0.9 0.02,-0.17 -0.01,-1.51 0,-1.88 0.01,-0.36 0.13,-0.64 0.13,-0.64 0.11,-0.27 0.35,-0.34 0.59,-0.3 0.24,0.03 0.38,0.14 0.54,0.46 0.16,0.32 0.24,1.15 0.28,1.46 0.05,0.31 0.08,1.46 0.13,2 0.05,0.53 0.17,1.46 0.38,2.21 0.21,0.75 0.4,1.02 0.4,1.02 0.2,0.36 0.31,0.45 0.31,0.45 0,0 0.01,-0.15 0.03,-0.28 0.02,-0.13 0.04,-0.12 0.05,-0.11 0,0.01 0.09,0.4 0.13,0.67 0.04,0.27 0.18,0.87 0.28,1.13 0.11,0.26 0.22,0.55 0.55,0.8 0.33,0.25 0.78,0.4 1.05,0.43 0.27,0.03 0.53,0.03 0.53,0.03 0.02,0 -0.35,-0.58 -0.36,-0.62 -0.15,-0.26 -0.24,-0.47 -0.41,-0.89 -0.17,-0.43 -0.18,-0.6 -0.18,-0.6l0.1 0c0,0 0.11,0.24 0.18,0.47 0.07,0.23 0.24,0.65 0.5,1.08 0.27,0.43 0.6,0.69 0.87,0.91 0.27,0.21 0.91,0.4 0.99,0.41 0.07,0.01 0.19,0 0.19,0 0,0 -0.11,-0.17 -0.49,-0.52z"/>
    <path class="fil2" d="M19.37 26.86l-0.49 -1.21c-0.01,-0.03 -0.06,-0.05 -0.1,-0.04 -0.04,0.01 -0.06,0.05 -0.04,0.09l0.48 1.2c0.02,0.04 0.06,0.06 0.1,0.05 0.04,-0.01 0.06,-0.05 0.05,-0.09z"/>
    <path class="fil2" d="M18.53 25.82c-0.01,-0.04 -0.05,-0.06 -0.09,-0.05 -0.04,0.01 -0.07,0.05 -0.06,0.08l0.39 1.23c0.01,0.04 0.05,0.07 0.09,0.06 0.05,-0.01 0.07,-0.05 0.06,-0.09l-0.39 -1.23z"/>
    <path class="fil2" d="M18.21 25.9c0,-0.04 -0.04,-0.07 -0.09,-0.06 -0.04,0 -0.07,0.04 -0.06,0.08l0.25 1.26c0.01,0.04 0.05,0.06 0.09,0.06 0.04,-0.01 0.07,-0.04 0.06,-0.08l-0.25 -1.26z"/>
    <path class="fil2" d="M17.82 25.98c0,-0.04 -0.04,-0.07 -0.08,-0.07 -0.04,0.01 -0.08,0.04 -0.07,0.08l0.15 1.27c0.01,0.04 0.05,0.07 0.09,0.06 0.04,0 0.07,-0.03 0.07,-0.07l-0.16 -1.27z"/>
    <path class="fil2" d="M15.87 25.6c-0.04,-0.02 -0.09,0 -0.1,0.04l-0.49 1.21c-0.01,0.04 0.01,0.08 0.05,0.09 0.04,0.01 0.09,-0.01 0.1,-0.05l0.49 -1.21c0.01,-0.03 -0.01,-0.07 -0.05,-0.08z"/>
    <path class="fil2" d="M16.21 25.75c-0.04,0 -0.08,0.02 -0.09,0.06l-0.39 1.23c-0.01,0.04 0.02,0.08 0.06,0.09 0.04,0 0.08,-0.02 0.09,-0.06l0.39 -1.23c0.01,-0.04 -0.01,-0.08 -0.06,-0.09z"/>
    <path class="fil2" d="M16.53 25.83c-0.05,-0.01 -0.09,0.02 -0.09,0.06l-0.25 1.25c-0.01,0.04 0.02,0.08 0.06,0.09 0.04,0 0.08,-0.02 0.09,-0.06l0.25 -1.26c0.01,-0.04 -0.02,-0.08 -0.06,-0.08z"/>
    <path class="fil2" d="M16.91 25.9c-0.04,0 -0.08,0.03 -0.08,0.07l-0.16 1.26c0,0.04 0.03,0.08 0.07,0.08 0.04,0.01 0.08,-0.02 0.09,-0.06l0.15 -1.27c0.01,-0.04 -0.02,-0.08 -0.07,-0.08z"/>
    <path class="fil2" d="M17.34 25.91c-0.04,0 -0.08,0.03 -0.08,0.07l0 1.28c0,0.04 0.03,0.07 0.07,0.07 0.05,0 0.08,-0.03 0.08,-0.07l0 -1.28c0.01,-0.04 -0.03,-0.07 -0.07,-0.07z"/>
    <path class="fil3" d="M23.01 6.84c0,0 0.21,0.35 0.2,0.6 0,0.21 -0.12,0.45 -0.27,0.59 -0.15,0.14 -0.31,0.11 -0.31,0.11 0,0 0.09,-0.19 -0.07,-0.52 -0.16,-0.33 -0.31,-0.4 -0.43,-0.38 -0.11,0.01 0.88,-0.4 0.88,-0.4z"/>
    <path class="fil3" d="M11.62 6.84c0,0 -0.2,0.35 -0.2,0.6 0,0.21 0.12,0.45 0.28,0.59 0.15,0.14 0.3,0.11 0.3,0.11 0,0 -0.08,-0.19 0.08,-0.52 0.16,-0.33 0.31,-0.4 0.42,-0.38 0.11,0.01 -0.88,-0.4 -0.88,-0.4z"/>
    <path class="fil4" d="M21.34 5.21c0.08,0.21 0.08,0.53 0.34,0.53 0.13,0 0.27,-0.07 0.27,-0.19 0,-0.3 -0.77,-0.57 -0.84,-0.9 -0.05,0 0.17,0.35 0.23,0.56z"/>
    <path class="fil2" d="M22.4 5.76c0,0 0,0.47 0.06,0.57 0.03,0.07 0.05,0.12 0.18,0.1 0.08,-0.01 0.16,-0.05 0.16,-0.16 0,-0.08 -0.14,-0.22 -0.2,-0.29 -0.06,-0.07 -0.2,-0.22 -0.2,-0.22z"/>
    <path class="fil2" d="M12.21 5.78c0,0 0,0.47 -0.06,0.57 -0.03,0.06 -0.05,0.11 -0.18,0.1 -0.09,-0.01 -0.16,-0.05 -0.16,-0.16 0,-0.09 0.14,-0.23 0.2,-0.29 0.06,-0.07 0.2,-0.22 0.2,-0.22z"/>
    <path class="fil2" d="M21.2 4.84l0 0c0.03,0.08 0.19,0.3 0.23,0.42 0.05,0.16 0.05,0.39 0.24,0.39 0.09,0 0.2,-0.05 0.2,-0.14 0,-0.23 -0.56,-0.47 -0.67,-0.67z"/>
    <path class="fil4" d="M21.31 4.98l0 0c0.02,0.05 0.13,0.21 0.16,0.29 0.04,0.11 0.04,0.27 0.17,0.27 0.06,0 0.14,-0.03 0.14,-0.1 0,-0.15 -0.4,-0.32 -0.47,-0.46z"/>
    <path class="fil4" d="M13.33 5.18c-0.07,0.21 -0.07,0.54 -0.33,0.54 -0.13,0 -0.27,-0.08 -0.27,-0.2 0,-0.3 0.77,-0.57 0.84,-0.9 0.05,0 -0.17,0.35 -0.24,0.56z"/>
    <path class="fil2" d="M13.48 4.81l0 0c-0.03,0.08 -0.19,0.3 -0.23,0.42 -0.05,0.16 -0.05,0.39 -0.24,0.39 -0.1,0 -0.2,-0.05 -0.2,-0.14 0,-0.23 0.56,-0.47 0.67,-0.67z"/>
    <path class="fil4" d="M13.37 4.95l0 0c-0.02,0.05 -0.13,0.21 -0.16,0.29 -0.04,0.11 -0.04,0.27 -0.17,0.27 -0.06,0 -0.14,-0.03 -0.14,-0.1 0,-0.15 0.39,-0.32 0.47,-0.46z"/>
    <path class="fil5" d="M19.54 12.84c-0.11,-1.62 -1.06,-2.89 -2.21,-2.89 -1.16,0 -2.11,1.27 -2.22,2.89 0.06,0.89 0.38,1.67 0.84,2.2l-0.46 0c0,0 0.21,0.28 0.32,0.49 0.11,0.21 0.05,0.6 0.07,0.92 0.03,0.32 0.3,0.57 0.46,0.78 0.15,0.21 0.3,0.35 0.37,0.58 0.08,0.23 0.05,0.33 0,0.47 -0.05,0.13 -0.21,0.34 -0.21,0.34 0,0 0.07,0.27 0.07,0.36 -0.01,0.09 -0.06,0.29 -0.11,0.37 -0.04,0.08 -0.04,0.08 -0.04,0.08 0,0 -0.05,0.14 0.03,0.2 0.08,0.06 0.09,0.08 0.24,0.08 0.06,0 0.13,0 0.19,0 0.08,0.01 0.16,0.02 0.17,0 0.04,-0.03 0.23,-0.03 0.27,-0.03l0 0 0.01 0c0.03,0 0.23,0 0.26,0.03 0.02,0.02 0.09,0.01 0.18,0 0.06,0 0.12,0 0.18,0 0.15,0 0.16,-0.02 0.24,-0.08 0.09,-0.06 0.04,-0.2 0.04,-0.2 0,0 0,0 -0.05,-0.08 -0.04,-0.08 -0.1,-0.28 -0.1,-0.37 -0.01,-0.09 0.06,-0.36 0.06,-0.36 0,0 -0.16,-0.21 -0.21,-0.34 -0.05,-0.14 -0.07,-0.24 0,-0.47 0.08,-0.23 0.22,-0.37 0.38,-0.58 0.15,-0.21 0.43,-0.46 0.45,-0.78 0.03,-0.32 -0.04,-0.71 0.08,-0.92 0.11,-0.21 0.31,-0.49 0.31,-0.49l-0.44 0c0.46,-0.53 0.77,-1.31 0.83,-2.2z"/>
    <path class="fil2" d="M18.31 15.99c-0.01,-0.09 -0.04,-0.18 -0.19,-0.27 -0.15,-0.11 -0.34,-0.08 -0.43,-0.04 -0.11,0.04 -0.26,0.17 -0.26,0.17 0,0 0.03,-0.44 0,-0.59 -0.03,-0.16 -0.15,-0.27 -0.15,-0.27 0,0 -0.12,0.11 -0.15,0.27 -0.03,0.15 0,0.59 0,0.59 0,0 -0.16,-0.13 -0.26,-0.17 -0.09,-0.04 -0.28,-0.07 -0.44,0.04 -0.14,0.09 -0.17,0.18 -0.19,0.27 -0.02,0.16 0.07,0.25 0.07,0.25 0,0 0.06,-0.17 0.13,-0.24 0.08,-0.08 0.18,-0.07 0.33,-0.04 0.14,0.02 0.24,0.16 0.32,0.35 0.01,0.03 0.02,0.06 0.03,0.08 0,0.03 0,0.05 0.01,0.06 0.03,0.16 0.15,0.27 0.15,0.27 0,0 0.12,-0.11 0.15,-0.27 0,-0.01 0.01,-0.03 0.01,-0.06 0.01,-0.02 0.02,-0.05 0.03,-0.08 0.08,-0.19 0.18,-0.33 0.31,-0.35 0.16,-0.03 0.25,-0.04 0.33,0.04 0.08,0.07 0.14,0.24 0.14,0.24 0,0 0.08,-0.09 0.06,-0.25z"/>
    <path class="fil2" d="M17.41 17.21l0.04 0.14 0.13 0 0.11 -0.2 0.07 -0.03 0.07 -0.08c0,0 -0.09,-0.06 -0.13,-0.05 -0.04,0 -0.11,0.06 -0.11,0.06l-0.18 0.16z"/>
    <path class="fil2" d="M17.23 17.23l-0.04 0.14 -0.13 0 -0.11 -0.2 -0.08 -0.03 -0.06 -0.08c0,0 0.09,-0.06 0.13,-0.06 0.04,0.01 0.11,0.07 0.11,0.07l0.18 0.16z"/>
    <path class="fil2" d="M17.26 17.54l0.19 0c-0.06,0.09 -0.08,0.14 -0.09,0.25 -0.06,-0.05 -0.11,-0.17 -0.12,-0.25l0.02 0z"/>
    <path class="fil2" d="M17.48 9.56c-0.01,0 -0.02,-0.01 -0.02,-0.01 -0.25,-0.01 -0.45,-0.21 -0.45,-0.47 0,-0.25 0.2,-0.46 0.45,-0.47 0,0 0.01,0 0.02,0 0.07,0 0.14,0.01 0.19,0.04 -0.06,-0.04 -0.13,-0.08 -0.21,-0.09 -0.04,-0.01 -0.08,-0.02 -0.12,-0.02 -0.33,0 -0.59,0.27 -0.59,0.59 0,0.3 0.23,0.54 0.52,0.58l0.03 0 0.02 0 -0.02 0.26c-0.07,0.05 -0.31,0.19 -0.55,0.36l0 0 0 0.01c-0.16,0.11 -0.31,0.23 -0.41,0.34 -0.28,0.31 -0.7,0.93 -0.78,1.55 -0.08,0.63 -0.02,1.16 -0.02,1.16l0.62 0c0.21,-0.38 0.6,-0.64 1.05,-0.67l0 -1.1c-0.01,-0.01 -0.04,-0.03 -0.07,-0.08 -0.04,-0.06 -0.03,-0.16 -0.03,-0.16l0.04 0 0.01 0 0.05 0 0 -0.31 0 0 0.11 -1.09 0.01 0 0.14 1.09 0 0 0 0.31 0.09 0c0,0 0.03,0.08 -0.03,0.18 -0.01,0.02 -0.04,0.04 -0.07,0.06l0 1.11c0.4,0.06 0.74,0.31 0.93,0.66l0.73 0c0,0 0.05,-0.53 -0.03,-1.16 -0.08,-0.62 -0.49,-1.24 -0.77,-1.55 -0.11,-0.11 -0.27,-0.24 -0.43,-0.36l0 0 0 0c-0.23,-0.16 -0.46,-0.3 -0.54,-0.35l-0.02 -0.26 0.03 0 0 0 0.01 0c0.03,0 0.06,0 0.09,-0.01 0.2,-0.04 0.36,-0.19 0.43,-0.37 -0.09,0.13 -0.24,0.23 -0.41,0.23z"/>
    <path class="fil2" d="M18.69 13.82l-0.31 0c0,0 0,0.06 -0.03,0.12 -0.03,0.07 -0.08,0.16 -0.27,0.25 -0.1,0.05 -0.18,0.07 -0.23,0.08 0.06,0.08 0.09,0.18 0.09,0.29 0,0.21 -0.14,0.4 -0.32,0.47 0.01,0.01 0.05,0.01 0.23,0 0.28,-0.03 0.46,-0.17 0.66,-0.41 0.2,-0.24 0.18,-0.8 0.18,-0.8z"/>
    <path class="fil2" d="M15.85 13.82l0.3 0c0,0 0,0.06 0.03,0.12 0.03,0.07 0.09,0.16 0.28,0.25 0.1,0.05 0.18,0.07 0.23,0.08 -0.06,0.08 -0.09,0.18 -0.09,0.29 0,0.21 0.13,0.4 0.32,0.47 -0.01,0.01 -0.05,0.01 -0.23,0 -0.28,-0.03 -0.46,-0.17 -0.66,-0.41 -0.2,-0.24 -0.18,-0.8 -0.18,-0.8z"/>
    <path class="fil2" d="M17.36 23.3l-0.11 0 0.04 -0.22 -0.01 0c-0.03,-0.03 -0.17,-0.13 -0.33,-0.17 -0.18,-0.04 -0.29,-0.07 -0.31,-0.07 0.01,-0.02 0.02,-0.03 0.02,-0.05 0.01,-0.05 -0.02,-0.11 -0.08,-0.13 0.03,0.01 0.08,0.02 0.17,0.05 0.02,0 0.05,0.01 0.08,0.02 0.1,0.03 0.21,0.07 0.31,0.16 0.1,0.08 0.14,0.15 0.15,0.18l0.01 0c0.01,-0.02 0.05,-0.1 0.15,-0.19 0.11,-0.09 0.21,-0.12 0.32,-0.15 0.02,-0.01 0.05,-0.02 0.07,-0.02 0.09,-0.03 0.14,-0.05 0.17,-0.05 -0.05,0.02 -0.09,0.08 -0.08,0.13 0,0.02 0.01,0.03 0.02,0.04 -0.01,0.01 -0.13,0.04 -0.3,0.08 -0.16,0.04 -0.3,0.14 -0.34,0.17l-0.01 0 0.06 0.22z"/>
    <path class="fil2" d="M24.98 17.97c-0.19,0.28 -0.77,1.17 -0.77,1.58l0 0.26c0,0.37 0.35,0.65 0.63,0.44 0.09,-0.06 0.14,-0.16 0.14,-0.27 0,-0.16 -0.17,-0.24 -0.3,-0.17 -0.08,0.04 -0.07,0.13 -0.21,0.13 0,-0.44 0.44,-0.27 0.46,-0.67 0,-0.03 0.01,-0.06 0.01,-0.09 0,-0.02 0.01,-0.05 0.01,-0.07 0.01,-0.04 0.02,-0.08 0.04,-0.13 0.09,-0.19 0.16,-0.33 0.28,-0.51 0.03,-0.04 0.06,-0.07 0.08,-0.09 0.23,-0.23 -0.15,0.7 -0.15,0.82l0 0.07c0,0.22 0.11,0.33 0.11,0.6l0 0.11c0,0.33 -0.27,0.56 -0.56,0.63l0 0.09c0,0.09 0.19,0.16 0.19,0.26 0,0.26 -0.23,0.3 -0.24,0.56 0,0.19 -0.08,0.44 -0.17,0.56 -0.01,0.01 -0.01,0.02 -0.02,0.02 -0.04,-0.16 -0.03,-0.46 -0.1,-0.59 -0.03,-0.05 -0.05,-0.1 -0.07,-0.13 -0.01,-0.06 -0.02,-0.1 -0.02,-0.17 -0.01,-0.06 -0.01,-0.13 -0.05,-0.23 -0.01,-0.04 -0.02,-0.06 -0.03,-0.07 -0.89,-1.37 -0.03,-1.51 -0.03,-2.62l0 -0.02c0,-0.33 -0.19,-0.35 -0.32,-0.55 -0.03,-0.06 -0.05,-0.12 -0.05,-0.21 -0.01,-0.23 0.07,-0.39 0.13,-0.56 0.04,-0.1 0.06,-0.19 0.06,-0.3l0 -0.11c0,-0.08 -0.04,-0.16 -0.1,-0.24 -0.13,-0.18 -0.38,-0.34 -0.4,-0.58 0,-0.07 0,-0.15 0,-0.22 0.52,-0.12 0.56,0.17 0.76,0.59 0.02,-0.02 0.04,-0.04 0.06,-0.06 0.23,-0.27 0.5,-0.13 0.5,0.19 0,0.17 -0.32,0.13 -0.32,0.23l0 0.03c0,0.03 0.6,0.66 0.25,0.78 -0.04,0.01 -0.09,0.01 -0.14,-0.03l0 -0.07c0.02,-0.33 -0.43,-0.28 -0.51,0.04 -0.11,0.46 0.42,0.86 0.83,0.35 0.56,-0.69 0.58,-1.77 -0.28,-2.25 -0.62,-0.35 -1.54,-0.56 -2.22,-0.9 -0.09,-0.05 -0.42,-0.19 -0.37,-0.32 0.01,-0.02 0.02,-0.03 0.03,-0.04 0.04,-0.03 0.09,-0.06 0.14,-0.06l0.02 0c0.13,0 0.18,0.06 0.26,0.11l0 0c0.04,-0.06 0.02,-0.12 0.13,-0.17 0.12,-0.06 0.24,-0.01 0.3,0.11 0.11,-0.03 0.14,-0.09 0.28,-0.09 0.29,0 0.44,0.33 0,0.33 0.13,0.54 4.02,0.44 1.73,3.7z"/>
    <path class="fil2" d="M9.61 17.97c0.2,0.28 0.78,1.17 0.78,1.58l0 0.26c0,0.37 -0.35,0.65 -0.64,0.44 -0.08,-0.06 -0.14,-0.16 -0.14,-0.27 0,-0.16 0.18,-0.24 0.31,-0.17 0.08,0.04 0.07,0.13 0.21,0.13 0,-0.44 -0.44,-0.27 -0.47,-0.67 0,-0.03 0,-0.06 0,-0.09 -0.01,-0.02 -0.01,-0.05 -0.02,-0.07 0,-0.04 -0.02,-0.08 -0.04,-0.13 -0.08,-0.19 -0.15,-0.33 -0.27,-0.51 -0.03,-0.04 -0.06,-0.07 -0.08,-0.09 -0.23,-0.23 0.15,0.7 0.15,0.82l0 0.07c0,0.22 -0.11,0.33 -0.11,0.6l0 0.11c0,0.33 0.26,0.56 0.56,0.63l0 0.09c0,0.09 -0.19,0.16 -0.19,0.26 0,0.26 0.23,0.3 0.23,0.56 0.01,0.19 0.09,0.44 0.18,0.56 0.01,0.01 0.01,0.02 0.02,0.02 0.04,-0.16 0.03,-0.46 0.1,-0.59 0.03,-0.05 0.05,-0.1 0.06,-0.13 0.02,-0.06 0.02,-0.1 0.03,-0.17 0,-0.06 0.01,-0.13 0.04,-0.23 0.01,-0.04 0.02,-0.06 0.03,-0.07 0.9,-1.37 0.04,-1.51 0.04,-2.62l0 -0.02c0,-0.33 0.19,-0.35 0.31,-0.55 0.03,-0.06 0.06,-0.12 0.06,-0.21 0,-0.23 -0.08,-0.39 -0.14,-0.56 -0.03,-0.1 -0.06,-0.19 -0.06,-0.3l0 -0.11c0,-0.08 0.05,-0.16 0.1,-0.24 0.14,-0.18 0.38,-0.34 0.4,-0.58 0,-0.07 0,-0.15 0,-0.22 -0.52,-0.12 -0.56,0.17 -0.76,0.59 -0.02,-0.02 -0.03,-0.04 -0.05,-0.06 -0.23,-0.27 -0.51,-0.13 -0.51,0.19 0,0.17 0.33,0.13 0.33,0.23l0 0.03c0,0.03 -0.6,0.66 -0.26,0.78 0.05,0.01 0.1,0.01 0.15,-0.03l0 -0.07c-0.02,-0.33 0.42,-0.28 0.5,0.04 0.12,0.46 -0.41,0.86 -0.82,0.35 -0.56,-0.69 -0.58,-1.77 0.28,-2.25 0.62,-0.35 1.54,-0.56 2.21,-0.9 0.1,-0.05 0.43,-0.19 0.37,-0.32 0,-0.02 -0.01,-0.03 -0.03,-0.04 -0.03,-0.03 -0.08,-0.06 -0.13,-0.06l-0.02 0c-0.13,0 -0.19,0.06 -0.26,0.11l0 0c-0.05,-0.06 -0.02,-0.12 -0.14,-0.17 -0.12,-0.06 -0.23,-0.01 -0.29,0.11 -0.11,-0.03 -0.15,-0.09 -0.29,-0.09 -0.28,0 -0.43,0.33 0,0.33 -0.12,0.54 -4.02,0.44 -1.73,3.7z"/>
    <path class="fil2" d="M19.52 16.13c0.16,0.05 0.31,0.06 0.45,0.03 -0.01,-1.77 0.4,-3.88 1.58,-5.33 0.06,-0.09 0.12,-0.17 0.14,-0.26 -0.12,0.01 -0.2,0.11 -0.28,0.18 -0.34,0.38 -0.7,1 -0.91,1.46 -0.51,1.13 -0.88,2.57 -0.98,3.92z"/>
    <path class="fil2" d="M15.12 16.13c-0.15,0.05 -0.3,0.06 -0.44,0.02 0.01,-1.76 -0.4,-3.87 -1.58,-5.32 -0.06,-0.09 -0.13,-0.17 -0.14,-0.26 0.11,0.01 0.19,0.11 0.27,0.18 0.34,0.38 0.7,0.99 0.92,1.46 0.51,1.12 0.88,2.57 0.97,3.92z"/>
    <path class="fil2" d="M24.51 10.16c-0.01,0 -0.03,0 -0.04,0l-0.25 -0.03 0.45 0.63c0.07,-0.19 0.34,-0.32 0.53,-0.36 0.21,-0.05 0.44,-0.02 0.62,0.11 0.33,0.24 0.4,0.71 0.24,1.07 -0.14,0.32 -0.51,0.49 -0.84,0.38 -0.19,-0.06 -0.32,-0.33 -0.34,-0.51 -0.01,-0.16 0.03,-0.34 0.1,-0.44 0.16,-0.23 0.6,-0.28 0.72,0.02 0.03,0.06 0.04,0.14 0.04,0.21 0,0.44 -0.53,0.46 -0.47,0.13 0.02,-0.13 0.17,-0.09 0.13,-0.25 0,-0.01 -0.21,0.05 -0.24,0.23 -0.02,0.09 -0.02,0.16 0.03,0.25 0.03,0.04 0.06,0.07 0.09,0.1 0.09,0.06 0.24,0.05 0.36,0 0.2,-0.08 0.29,-0.24 0.31,-0.44 0.11,-0.8 -1,-0.95 -1.27,-0.25 -0.05,0.14 -0.05,0.51 -0.02,0.66 0.11,0.75 0.84,1.04 1.4,0.63 0.18,-0.14 0.3,-0.3 0.38,-0.32 0.02,0.15 0.26,1.19 0.16,1.67 -0.02,0.11 -0.07,0.23 -0.19,0.24 -0.13,0.02 -0.17,0.02 -0.21,-0.1 -0.03,-0.13 -0.43,-0.1 -0.21,0.23 -0.12,0.03 -0.23,0.04 -0.36,0.07 -0.03,0.01 -0.06,-0.03 -0.09,-0.05 -0.22,-0.17 -0.23,-0.39 -0.5,-0.61 -0.35,-0.28 -0.71,-0.09 -0.99,-0.23 -0.1,-0.05 -0.27,-0.22 -0.35,-0.23 0.01,0.17 0.18,0.29 0.32,0.33l0 0.12c0,0.09 -0.08,0.24 -0.14,0.15 -0.04,-0.07 -0.16,-0.22 -0.27,-0.37 -0.62,-0.83 -1.07,-1.78 -1.31,-2.79 0,0 0,0 0,0 0.44,-0.24 1.03,-0.53 1.7,-0.53l0.22 0c0.12,0 0.45,-0.01 0.45,0.1 0,0.08 -0.07,0.16 -0.16,0.18z"/>
    <path class="fil2" d="M10.06 10.12c0.01,0 0.03,0 0.04,0l0.25 -0.03 -0.45 0.63c-0.07,-0.19 -0.34,-0.32 -0.53,-0.36 -0.21,-0.04 -0.44,-0.02 -0.62,0.11 -0.33,0.24 -0.4,0.71 -0.24,1.07 0.14,0.32 0.51,0.49 0.84,0.39 0.19,-0.07 0.32,-0.34 0.34,-0.52 0.01,-0.16 -0.03,-0.34 -0.1,-0.44 -0.16,-0.22 -0.6,-0.28 -0.72,0.02 -0.03,0.07 -0.04,0.14 -0.04,0.21 0,0.45 0.53,0.46 0.47,0.13 -0.02,-0.13 -0.17,-0.09 -0.13,-0.25 0,0 0.21,0.05 0.24,0.23 0.01,0.1 0.02,0.17 -0.03,0.25 -0.03,0.04 -0.06,0.07 -0.09,0.1 -0.09,0.06 -0.24,0.05 -0.37,0 -0.19,-0.08 -0.28,-0.24 -0.31,-0.44 -0.11,-0.8 1.01,-0.95 1.28,-0.25 0.05,0.14 0.04,0.51 0.02,0.67 -0.11,0.74 -0.84,1.03 -1.4,0.62 -0.18,-0.14 -0.3,-0.3 -0.38,-0.32 -0.03,0.16 -0.26,1.2 -0.16,1.67 0.02,0.11 0.06,0.23 0.19,0.24 0.13,0.02 0.17,0.03 0.21,-0.1 0.03,-0.13 0.43,-0.09 0.21,0.23 0.12,0.03 0.23,0.04 0.35,0.07 0.04,0.01 0.07,-0.03 0.09,-0.05 0.23,-0.17 0.24,-0.38 0.51,-0.61 0.35,-0.27 0.7,-0.09 0.99,-0.23 0.1,-0.05 0.26,-0.22 0.35,-0.22 -0.01,0.16 -0.18,0.29 -0.32,0.32l0 0.12c0,0.09 0.08,0.24 0.14,0.15 0.04,-0.07 0.16,-0.22 0.27,-0.37 0.61,-0.83 1.07,-1.78 1.3,-2.79 0.01,0 0.01,0 0.01,0 -0.44,-0.23 -1.03,-0.53 -1.7,-0.53l-0.22 0c-0.13,0 -0.45,-0.01 -0.45,0.1 0,0.08 0.07,0.17 0.16,0.18z"/>
    <path class="fil2" d="M17.57 23.19c-0.1,0 -0.18,0.08 -0.18,0.17 0,0.09 0.08,0.17 0.18,0.17 0.09,0 0.17,-0.08 0.17,-0.17 0,-0.09 -0.08,-0.17 -0.17,-0.17zm0 0.05c0.06,0 0.12,0.05 0.12,0.12 0,0.07 -0.06,0.12 -0.12,0.12 -0.07,0 -0.13,-0.05 -0.13,-0.12 0,-0.07 0.06,-0.12 0.13,-0.12l0 0z"/>
    <path class="fil2" d="M17.98 23.34c-0.09,0 -0.17,0.07 -0.17,0.17 0,0.09 0.08,0.17 0.17,0.17 0.1,0 0.18,-0.08 0.18,-0.17 0,-0.1 -0.08,-0.17 -0.18,-0.17zm0 0.05c0.07,0 0.13,0.05 0.13,0.12 0,0.06 -0.06,0.12 -0.13,0.12 -0.06,0 -0.12,-0.06 -0.12,-0.12 0,-0.07 0.06,-0.12 0.12,-0.12l0 0z"/>
    <path class="fil2" d="M17.8 23.74c-0.1,0 -0.17,0.08 -0.17,0.17 0,0.1 0.07,0.17 0.17,0.17 0.09,0 0.17,-0.07 0.17,-0.17 0,-0.09 -0.08,-0.17 -0.17,-0.17zm0 0.05c0.06,0 0.12,0.05 0.12,0.12 0,0.07 -0.06,0.12 -0.12,0.12 -0.07,0 -0.12,-0.05 -0.12,-0.12 0,-0.07 0.05,-0.12 0.12,-0.12l0 0z"/>
    <path class="fil2" d="M17.3 23.53c-0.09,0 -0.17,0.08 -0.17,0.18 0,0.09 0.08,0.17 0.17,0.17 0.09,0 0.17,-0.08 0.17,-0.17 0,-0.1 -0.08,-0.18 -0.17,-0.18zm0 0.05c0.07,0 0.12,0.06 0.12,0.13 0,0.06 -0.05,0.12 -0.12,0.12 -0.07,0 -0.12,-0.06 -0.12,-0.12 0,-0.07 0.05,-0.13 0.12,-0.13l0 0z"/>
    <path class="fil2" d="M17.04 23.19c-0.09,0 -0.17,0.08 -0.17,0.17 0,0.09 0.08,0.17 0.17,0.17 0.1,0 0.17,-0.08 0.17,-0.17 0,-0.09 -0.07,-0.17 -0.17,-0.17zm0 0.05c0.07,0 0.12,0.05 0.12,0.12 0,0.07 -0.05,0.12 -0.12,0.12 -0.06,0 -0.12,-0.05 -0.12,-0.12 0,-0.07 0.06,-0.12 0.12,-0.12l0 0z"/>
    <path class="fil2" d="M16.65 23.36c-0.09,0 -0.17,0.08 -0.17,0.17 0,0.1 0.08,0.17 0.17,0.17 0.1,0 0.17,-0.07 0.17,-0.17 0,-0.09 -0.07,-0.17 -0.17,-0.17zm0 0.05c0.07,0 0.12,0.06 0.12,0.12 0,0.07 -0.05,0.12 -0.12,0.12 -0.06,0 -0.12,-0.05 -0.12,-0.12 0,-0.06 0.06,-0.12 0.12,-0.12l0 0z"/>
    <path class="fil2" d="M16.88 23.74c-0.1,0 -0.18,0.08 -0.18,0.18 0,0.09 0.08,0.17 0.18,0.17 0.09,0 0.17,-0.08 0.17,-0.17 0,-0.1 -0.08,-0.18 -0.17,-0.18zm0 0.06c0.06,0 0.12,0.05 0.12,0.12 0,0.06 -0.06,0.12 -0.12,0.12 -0.07,0 -0.12,-0.06 -0.12,-0.12 0,-0.07 0.05,-0.12 0.12,-0.12l0 0z"/>
    <path class="fil2" d="M17.31 23.98c-0.09,0 -0.17,0.08 -0.17,0.17 0,0.1 0.08,0.17 0.17,0.17 0.1,0 0.18,-0.07 0.18,-0.17 0,-0.09 -0.08,-0.17 -0.18,-0.17zm0 0.05c0.07,0 0.12,0.06 0.12,0.12 0,0.07 -0.05,0.12 -0.12,0.12 -0.06,0 -0.12,-0.05 -0.12,-0.12 0,-0.06 0.06,-0.12 0.12,-0.12l0 0z"/>
    <path class="fil2" d="M17.68 24.22c-0.1,0 -0.18,0.08 -0.18,0.18 0,0.09 0.08,0.17 0.18,0.17 0.09,0 0.17,-0.08 0.17,-0.17 0,-0.1 -0.08,-0.18 -0.17,-0.18zm0 0.05c0.06,0 0.12,0.06 0.12,0.13 0,0.06 -0.06,0.12 -0.12,0.12 -0.07,0 -0.12,-0.06 -0.12,-0.12 0,-0.07 0.05,-0.13 0.12,-0.13l0 0z"/>
    <path class="fil2" d="M17.31 24.46c-0.09,0 -0.17,0.07 -0.17,0.17 0,0.09 0.08,0.17 0.17,0.17 0.1,0 0.18,-0.08 0.18,-0.17 0,-0.1 -0.08,-0.17 -0.18,-0.17zm0 0.05c0.07,0 0.12,0.05 0.12,0.12 0,0.06 -0.05,0.12 -0.12,0.12 -0.06,0 -0.12,-0.06 -0.12,-0.12 0,-0.07 0.06,-0.12 0.12,-0.12l0 0z"/>
    <path class="fil2" d="M16.98 24.22c-0.1,0 -0.17,0.08 -0.17,0.18 0,0.09 0.07,0.17 0.17,0.17 0.09,0 0.17,-0.08 0.17,-0.17 0,-0.1 -0.08,-0.18 -0.17,-0.18zm0 0.05c0.06,0 0.12,0.06 0.12,0.13 0,0.06 -0.06,0.12 -0.12,0.12 -0.07,0 -0.12,-0.06 -0.12,-0.12 0,-0.07 0.05,-0.13 0.12,-0.13l0 0z"/>
    <path class="fil2" d="M17.34 24.88c-0.1,0 -0.17,0.07 -0.17,0.17 0,0.09 0.07,0.17 0.17,0.17 0.09,0 0.17,-0.08 0.17,-0.17 0,-0.1 -0.08,-0.17 -0.17,-0.17zm0 0.05c0.07,0 0.12,0.05 0.12,0.12 0,0.07 -0.05,0.12 -0.12,0.12 -0.07,0 -0.12,-0.05 -0.12,-0.12 0,-0.07 0.05,-0.12 0.12,-0.12l0 0z"/>
    <path class="fil3" d="M15.95 28.41c0.07,-0.01 0.13,-0.03 0.18,-0.05 0.05,-0.01 0.1,-0.03 0.15,-0.05l0.01 0.01c0,0.01 0,0.03 0,0.05 -0.01,0.02 -0.01,0.03 -0.01,0.05 0,0.02 0,0.04 0,0.05 0,0.02 0,0.03 0,0.05l0 0.49c0,0.02 0,0.03 0,0.04 0.01,0.02 0.01,0.03 0.03,0.03 0.01,0.01 0.02,0.02 0.05,0.02 0.02,0.01 0.05,0.01 0.09,0.01l0 0.03c-0.02,0 -0.05,0 -0.09,0 -0.03,0 -0.08,0 -0.14,0 -0.06,0 -0.11,0 -0.15,0 -0.04,0 -0.07,0 -0.09,0l0 -0.03c0.04,0 0.08,0 0.1,-0.01 0.03,0 0.05,-0.01 0.06,-0.02 0.01,-0.01 0.02,-0.02 0.02,-0.04 0.01,-0.02 0.01,-0.05 0.01,-0.07l0 -0.55 -0.21 0.03 -0.01 -0.04z"/>
    <path class="fil3" d="M16.92 28.6c0.05,-0.02 0.08,-0.05 0.1,-0.08 0.02,-0.03 0.03,-0.07 0.03,-0.12 0,-0.03 0,-0.05 -0.01,-0.07 -0.01,-0.03 -0.02,-0.05 -0.04,-0.06 -0.02,-0.01 -0.03,-0.03 -0.05,-0.03 -0.02,-0.01 -0.04,-0.01 -0.06,-0.01 -0.03,0 -0.05,0 -0.07,0.01 -0.02,0.01 -0.04,0.02 -0.05,0.03 -0.01,0.02 -0.03,0.04 -0.03,0.05 -0.01,0.02 -0.01,0.04 -0.01,0.07 0,0.03 0,0.05 0.01,0.07 0.01,0.02 0.02,0.04 0.04,0.06 0.01,0.02 0.03,0.03 0.06,0.04 0.02,0.02 0.05,0.03 0.08,0.04zm-0.08 0.09c-0.05,0.03 -0.08,0.06 -0.1,0.1 -0.02,0.03 -0.03,0.07 -0.03,0.11 0,0.03 0,0.06 0.01,0.08 0.01,0.03 0.02,0.05 0.04,0.07 0.02,0.02 0.04,0.03 0.06,0.04 0.03,0.01 0.06,0.02 0.09,0.02 0.03,0 0.05,0 0.07,-0.01 0.02,-0.01 0.04,-0.03 0.05,-0.04 0.02,-0.02 0.03,-0.04 0.03,-0.06 0.01,-0.02 0.02,-0.04 0.02,-0.06 0,-0.03 -0.01,-0.06 -0.02,-0.09 -0.02,-0.02 -0.03,-0.04 -0.06,-0.06 -0.02,-0.02 -0.04,-0.04 -0.07,-0.05 -0.03,-0.02 -0.06,-0.03 -0.09,-0.05zm-0.06 -0.02c-0.05,-0.03 -0.09,-0.06 -0.13,-0.1 -0.03,-0.04 -0.04,-0.08 -0.04,-0.13 0,-0.04 0,-0.08 0.02,-0.11 0.02,-0.03 0.04,-0.06 0.07,-0.08 0.03,-0.03 0.06,-0.04 0.09,-0.06 0.04,-0.01 0.08,-0.02 0.12,-0.02 0.05,0 0.08,0.01 0.12,0.02 0.03,0.02 0.06,0.03 0.08,0.05 0.02,0.02 0.04,0.05 0.05,0.07 0.01,0.03 0.02,0.05 0.02,0.08 0,0.02 0,0.03 -0.01,0.05 0,0.01 -0.01,0.03 -0.03,0.05 -0.01,0.02 -0.03,0.04 -0.06,0.07 -0.02,0.02 -0.06,0.04 -0.1,0.07 0.07,0.03 0.12,0.06 0.16,0.1 0.04,0.05 0.06,0.1 0.06,0.16 0,0.04 -0.01,0.08 -0.03,0.11 -0.02,0.04 -0.04,0.06 -0.07,0.09 -0.03,0.02 -0.07,0.04 -0.11,0.05 -0.04,0.02 -0.08,0.02 -0.12,0.02 -0.04,0 -0.08,0 -0.11,-0.01 -0.04,-0.01 -0.07,-0.02 -0.1,-0.04 -0.02,-0.02 -0.04,-0.05 -0.06,-0.07 -0.01,-0.03 -0.02,-0.07 -0.02,-0.1 0,-0.02 0,-0.03 0,-0.05 0.01,-0.02 0.01,-0.04 0.03,-0.07 0.01,-0.02 0.03,-0.04 0.06,-0.07 0.03,-0.03 0.07,-0.05 0.11,-0.08z"/>
    <path class="fil3" d="M17.4 28.71c0,0.01 0,0.02 0,0.03 0,0.01 0,0.02 0,0.04 0,0.03 0,0.06 0.01,0.1 0,0.04 0.01,0.08 0.03,0.11 0.01,0.03 0.04,0.06 0.06,0.09 0.03,0.02 0.06,0.03 0.1,0.03 0.03,0 0.05,0 0.07,-0.02 0.02,-0.01 0.04,-0.02 0.05,-0.04 0.02,-0.02 0.03,-0.04 0.03,-0.07 0.01,-0.03 0.01,-0.05 0.01,-0.08 0,-0.04 0,-0.07 -0.01,-0.09 -0.01,-0.03 -0.02,-0.05 -0.04,-0.07 -0.01,-0.02 -0.03,-0.04 -0.06,-0.05 -0.02,-0.01 -0.05,-0.01 -0.09,-0.01 -0.02,0 -0.05,0 -0.08,0.01 -0.03,0 -0.06,0.01 -0.08,0.02zm0.44 -0.49c-0.07,0.02 -0.13,0.04 -0.18,0.07 -0.05,0.03 -0.09,0.06 -0.12,0.1 -0.04,0.03 -0.07,0.08 -0.09,0.12 -0.02,0.05 -0.04,0.1 -0.04,0.15 0.03,-0.02 0.07,-0.04 0.1,-0.05 0.04,-0.01 0.08,-0.02 0.11,-0.02 0.04,0 0.07,0.01 0.11,0.02 0.03,0.01 0.06,0.03 0.08,0.05 0.03,0.02 0.05,0.05 0.06,0.08 0.01,0.03 0.02,0.07 0.02,0.11 0,0.04 -0.01,0.08 -0.02,0.12 -0.02,0.04 -0.04,0.07 -0.07,0.1 -0.03,0.03 -0.06,0.05 -0.1,0.07 -0.04,0.02 -0.08,0.02 -0.13,0.02 -0.05,0 -0.09,-0.01 -0.13,-0.03 -0.04,-0.01 -0.07,-0.04 -0.1,-0.07 -0.02,-0.04 -0.04,-0.07 -0.05,-0.12 -0.02,-0.04 -0.02,-0.09 -0.02,-0.13 0,-0.09 0.01,-0.16 0.04,-0.23 0.02,-0.07 0.06,-0.14 0.11,-0.19 0.05,-0.05 0.1,-0.1 0.17,-0.14 0.07,-0.03 0.15,-0.06 0.24,-0.07l0.01 0.04z"/>
    <path class="fil3" d="M18.06 28.7c0.03,-0.01 0.07,-0.02 0.1,-0.03 0.03,-0.01 0.06,-0.01 0.09,-0.01 0.05,0 0.09,0 0.12,0.02 0.04,0.01 0.07,0.03 0.1,0.05 0.03,0.03 0.05,0.05 0.06,0.09 0.02,0.03 0.03,0.07 0.03,0.11 0,0.06 -0.01,0.11 -0.04,0.15 -0.02,0.05 -0.06,0.09 -0.1,0.12 -0.04,0.03 -0.09,0.05 -0.14,0.07 -0.05,0.01 -0.11,0.02 -0.16,0.02 -0.02,0 -0.04,0 -0.06,0 -0.02,0 -0.03,-0.01 -0.05,-0.01 -0.02,-0.01 -0.03,-0.02 -0.05,-0.03 -0.01,-0.01 -0.01,-0.03 -0.01,-0.04 0,-0.01 0,-0.02 0,-0.03 0.01,-0.01 0.01,-0.01 0.02,-0.02 0.01,-0.01 0.01,-0.01 0.02,-0.02 0.01,0 0.02,0 0.03,-0.01l0 0c0.01,0.02 0.03,0.03 0.04,0.04 0.02,0.01 0.03,0.02 0.05,0.03 0.02,0 0.04,0.01 0.06,0.01 0.01,0.01 0.03,0.01 0.05,0.01 0.03,0 0.06,-0.01 0.09,-0.02 0.03,-0.01 0.05,-0.03 0.07,-0.05 0.01,-0.02 0.03,-0.05 0.04,-0.08 0.01,-0.03 0.01,-0.06 0.01,-0.09 0,-0.03 -0.01,-0.07 -0.02,-0.1 -0.01,-0.03 -0.03,-0.05 -0.05,-0.08 -0.02,-0.02 -0.05,-0.03 -0.08,-0.04 -0.04,-0.02 -0.07,-0.02 -0.11,-0.02 -0.03,0 -0.06,0 -0.09,0.01 -0.03,0 -0.05,0.01 -0.07,0.02l-0.02 -0.01c0.01,-0.07 0.02,-0.14 0.04,-0.21 0.01,-0.08 0.03,-0.15 0.05,-0.23 0.03,0 0.06,0 0.09,0 0.03,0 0.06,0 0.1,0 0.02,0 0.04,0 0.06,0 0.02,0 0.04,0 0.07,0 0.02,0 0.04,0 0.06,0 0.02,0 0.04,0 0.06,0l-0.02 0.12 -0.38 -0.01c-0.02,0.05 -0.03,0.09 -0.04,0.14 0,0.04 -0.01,0.08 -0.02,0.13z"/>
   </g>
   <path class="fil1" d="M5.49 8.56l-1.19 -0.93 -0.33 0.42 -0.24 -0.19 0.88 -1.13 0.25 0.19 -0.33 0.42 1.18 0.93 -0.22 0.29zm-0.61 -2.14l0.25 -0.27 0.72 0.68c0.11,0.11 0.19,0.17 0.23,0.2 0.06,0.04 0.13,0.05 0.21,0.04 0.07,-0.01 0.14,-0.05 0.21,-0.13 0.07,-0.07 0.11,-0.14 0.11,-0.21 0.01,-0.07 -0.01,-0.12 -0.05,-0.18 -0.03,-0.05 -0.1,-0.12 -0.21,-0.22l-0.73 -0.69 0.25 -0.27 0.7 0.66c0.16,0.15 0.26,0.26 0.31,0.34 0.06,0.07 0.09,0.15 0.09,0.23 0.01,0.09 0,0.17 -0.03,0.26 -0.04,0.09 -0.11,0.19 -0.2,0.29 -0.12,0.13 -0.23,0.21 -0.32,0.25 -0.09,0.03 -0.17,0.05 -0.26,0.04 -0.08,0 -0.15,-0.02 -0.21,-0.06 -0.1,-0.05 -0.22,-0.15 -0.36,-0.29l-0.71 -0.67zm0.1 -0.34l-0.22 -0.21 0.21 -0.22 0.22 0.21 -0.21 0.22zm0.37 -0.39l-0.22 -0.21 0.21 -0.22 0.22 0.21 -0.21 0.22zm2.12 0.66l-1.12 -1.43 0.61 -0.48c0.16,-0.12 0.28,-0.19 0.37,-0.22 0.09,-0.03 0.18,-0.03 0.27,0.01 0.09,0.03 0.17,0.09 0.24,0.17 0.08,0.11 0.12,0.22 0.11,0.34 0,0.12 -0.06,0.24 -0.17,0.36 0.09,-0.02 0.17,-0.02 0.24,0 0.08,0.01 0.19,0.04 0.35,0.1l0.39 0.14 -0.34 0.27 -0.46 -0.15c-0.16,-0.05 -0.26,-0.08 -0.31,-0.09 -0.05,-0.01 -0.1,0 -0.14,0.01 -0.04,0.01 -0.09,0.05 -0.15,0.1l-0.06 0.05 0.46 0.59 -0.29 0.23zm-0.35 -1.05l0.21 -0.17c0.14,-0.11 0.22,-0.18 0.25,-0.22 0.02,-0.04 0.03,-0.08 0.03,-0.12 0,-0.05 -0.02,-0.09 -0.05,-0.14 -0.04,-0.04 -0.08,-0.07 -0.13,-0.08 -0.05,-0.01 -0.1,0 -0.16,0.03 -0.02,0.01 -0.09,0.07 -0.21,0.16l-0.23 0.17 0.29 0.37zm1.82 -0.06l-0.99 -1.53 0.31 -0.2 0.44 0.68 0.18 -1.08 0.41 -0.27 -0.19 0.97 1.21 0.54 -0.4 0.25 -0.88 -0.44 -0.08 0.42 0.3 0.46 -0.31 0.2zm1.55 -0.93l-0.85 -1.61 0.33 -0.17 0.85 1.6 -0.33 0.18zm-0.91 -1.76l-0.16 -0.29 0.31 -0.16 0.15 0.29 -0.3 0.16zm1.99 1.24l-0.28 -0.7 -1.02 -0.73 0.4 -0.16 0.67 0.5 0.12 -0.82 0.39 -0.16 -0.22 1.23 0.28 0.71 -0.34 0.13zm1.14 -0.42l-0.5 -1.74 1.29 -0.37 0.08 0.29 -0.93 0.27 0.11 0.39 0.87 -0.25 0.09 0.29 -0.88 0.25 0.14 0.48 0.97 -0.28 0.09 0.29 -1.33 0.38zm3.44 -1.32l0.36 0.08c-0.04,0.2 -0.11,0.36 -0.23,0.46 -0.12,0.11 -0.28,0.17 -0.47,0.19 -0.25,0.01 -0.45,-0.05 -0.62,-0.21 -0.16,-0.15 -0.26,-0.37 -0.28,-0.65 -0.02,-0.3 0.04,-0.55 0.18,-0.72 0.14,-0.18 0.34,-0.28 0.6,-0.3 0.22,-0.02 0.4,0.03 0.55,0.15 0.09,0.08 0.16,0.18 0.21,0.33l-0.35 0.11c-0.03,-0.09 -0.08,-0.16 -0.15,-0.21 -0.08,-0.05 -0.16,-0.07 -0.26,-0.07 -0.13,0.01 -0.24,0.07 -0.32,0.17 -0.07,0.11 -0.1,0.27 -0.09,0.48 0.02,0.23 0.08,0.39 0.17,0.48 0.09,0.09 0.2,0.13 0.33,0.12 0.1,-0.01 0.18,-0.04 0.24,-0.11 0.07,-0.07 0.11,-0.17 0.13,-0.3zm0.75 -1.18l0.37 0 -0.02 0.99c0,0.15 0,0.25 0.01,0.3 0.02,0.07 0.05,0.14 0.11,0.18 0.06,0.05 0.14,0.07 0.24,0.07 0.1,0 0.18,-0.02 0.23,-0.06 0.06,-0.04 0.09,-0.09 0.1,-0.15 0.01,-0.07 0.02,-0.17 0.02,-0.31l0.02 -1.01 0.36 0.01 -0.01 0.95c0,0.22 -0.02,0.38 -0.04,0.47 -0.02,0.09 -0.06,0.16 -0.11,0.22 -0.05,0.06 -0.13,0.11 -0.22,0.15 -0.09,0.03 -0.2,0.05 -0.35,0.05 -0.17,-0.01 -0.3,-0.03 -0.39,-0.07 -0.09,-0.04 -0.16,-0.09 -0.21,-0.16 -0.05,-0.06 -0.08,-0.13 -0.1,-0.2 -0.02,-0.11 -0.03,-0.26 -0.02,-0.46l0.01 -0.97zm1.8 1.87l0.3 -1.79 0.55 0.09 0.11 1.28 0.52 -1.17 0.55 0.09 -0.3 1.79 -0.34 -0.05 0.24 -1.42 -0.59 1.36 -0.35 -0.06 -0.12 -1.47 -0.24 1.41 -0.33 -0.06zm2.1 0.34l0.61 -1.71 0.35 0.12 -0.24 0.68 0.67 0.24 0.24 -0.67 0.35 0.12 -0.62 1.71 -0.34 -0.12 0.27 -0.75 -0.68 -0.24 -0.27 0.74 -0.34 -0.12zm2.49 -1.04l0.33 0.15 -0.41 0.9c-0.07,0.14 -0.1,0.23 -0.12,0.28 -0.01,0.07 0,0.14 0.03,0.21 0.03,0.06 0.1,0.12 0.19,0.16 0.09,0.04 0.17,0.06 0.24,0.04 0.06,-0.02 0.11,-0.05 0.15,-0.11 0.04,-0.05 0.08,-0.14 0.14,-0.27l0.42 -0.91 0.34 0.15 -0.4 0.87c-0.09,0.2 -0.17,0.33 -0.22,0.41 -0.06,0.07 -0.12,0.12 -0.2,0.16 -0.07,0.03 -0.16,0.05 -0.25,0.04 -0.1,0 -0.21,-0.03 -0.34,-0.09 -0.16,-0.07 -0.27,-0.15 -0.33,-0.22 -0.07,-0.07 -0.11,-0.15 -0.13,-0.23 -0.02,-0.08 -0.02,-0.15 -0.01,-0.23 0.02,-0.1 0.08,-0.25 0.16,-0.43l0.41 -0.88zm0.89 2.43l0.97 -1.53 0.66 0.41c0.16,0.1 0.27,0.19 0.33,0.27 0.06,0.07 0.09,0.16 0.09,0.26 0,0.09 -0.03,0.19 -0.09,0.28 -0.07,0.12 -0.17,0.19 -0.28,0.22 -0.12,0.03 -0.25,0.02 -0.39,-0.05 0.04,0.08 0.07,0.16 0.08,0.24 0.01,0.07 0.02,0.19 0.02,0.36l0 0.41 -0.37 -0.23 -0.01 -0.48c-0.01,-0.16 -0.02,-0.27 -0.03,-0.32 -0.01,-0.05 -0.02,-0.09 -0.05,-0.13 -0.03,-0.03 -0.07,-0.07 -0.15,-0.11l-0.06 -0.04 -0.4 0.64 -0.32 -0.2zm0.88 -0.69l0.22 0.15c0.15,0.09 0.25,0.14 0.3,0.15 0.04,0.01 0.08,0.01 0.12,-0.01 0.04,-0.01 0.08,-0.05 0.11,-0.09 0.03,-0.05 0.04,-0.1 0.04,-0.15 -0.01,-0.05 -0.04,-0.1 -0.08,-0.14 -0.03,-0.02 -0.1,-0.07 -0.23,-0.15l-0.24 -0.15 -0.24 0.39zm0.65 1.68l1.12 -1.43 0.29 0.23 -1.12 1.43 -0.29 -0.23zm1.24 -1.55l0.2 -0.26 0.27 0.21 -0.2 0.26 -0.27 -0.21zm-0.31 2.3l0.51 -0.57 0.19 -1.23 0.33 0.28 -0.16 0.83 0.79 -0.27 0.32 0.28 -1.2 0.35 -0.5 0.58 -0.28 -0.25zm0.91 0.81l1.38 -1.18 0.88 1.02 -0.24 0.2 -0.63 -0.74 -0.31 0.26 0.59 0.69 -0.23 0.2 -0.59 -0.69 -0.37 0.32 0.66 0.77 -0.24 0.2 -0.9 -1.05zm1.33 1.62l1.24 -0.86 -0.31 -0.44 0.25 -0.18 0.83 1.18 -0.25 0.18 -0.31 -0.44 -1.23 0.87 -0.22 -0.31zm0.64 0.94l1.58 -0.89 0.18 0.32 -1.58 0.89 -0.18 -0.32zm1.74 -0.96l0.28 -0.16 0.17 0.29 -0.29 0.17 -0.16 -0.3z"/>
  </g>
 </g>
</svg>
